<svg viewBox="0 0 136.4 158.18" xmlns="http://www.w3.org/2000/svg" data-name="Layer 1" id="Layer_1">
  <defs>
    <style>
      .cls-1 {
        fill: #ffd766;
      }

      .cls-2 {
        fill: none;
        stroke: #000;
        stroke-miterlimit: 10;
        stroke-width: .97px;
      }

      .cls-3 {
        fill: #e8ff9f;
      }
    </style>
  </defs>
  <g>
    <path d="M27.97,146.68c-1.14,0-2.29-.07-3.42-.21-15.02-1.87-25.72-15.61-23.85-30.62L12.05,24.55C13.76,10.83,25.45.49,39.25.49c1.14,0,2.29.07,3.42.21,15.02,1.87,25.72,15.6,23.85,30.62l-11.35,91.29c-1.71,13.72-13.4,24.06-27.2,24.06Z" class="cls-3"></path>
    <path d="M39.25.97c1.12,0,2.25.07,3.36.21,7.15.89,13.52,4.51,17.94,10.19,4.42,5.68,6.37,12.75,5.48,19.89l-11.35,91.29c-1.68,13.47-13.16,23.63-26.72,23.63-1.12,0-2.25-.07-3.36-.21-14.75-1.83-25.26-15.33-23.42-30.08L12.54,24.61C14.21,11.13,25.7.97,39.25.97M39.25,0C25.37,0,13.33,10.35,11.57,24.49L.22,115.78c-1.9,15.31,8.96,29.26,24.27,31.17h0c1.17.15,2.33.22,3.48.22,13.89,0,25.93-10.35,27.68-24.49l11.35-91.29c1.9-15.31-8.96-29.26-24.27-31.17h0c-1.17-.15-2.33-.22-3.48-.22h0Z"></path>
  </g>
  <g>
    <path d="M108.49,157.7c-9.44,0-18.11-4.75-23.17-12.7l-49.43-77.59c-8.13-12.76-4.36-29.76,8.4-37.89,4.42-2.81,9.51-4.3,14.72-4.3,9.44,0,18.11,4.75,23.17,12.7l49.42,77.59c3.94,6.18,5.23,13.53,3.65,20.69-1.59,7.16-5.87,13.27-12.05,17.21-4.42,2.81-9.51,4.3-14.72,4.3Z" class="cls-1"></path>
    <path d="M59.01,24.72v.97s0,0,0,0c9.28,0,17.78,4.66,22.76,12.48l49.42,77.59c3.87,6.07,5.14,13.29,3.58,20.32-1.56,7.03-5.76,13.03-11.84,16.9-4.34,2.76-9.34,4.22-14.46,4.22-9.28,0-17.79-4.66-22.76-12.48l-49.42-77.59c-7.99-12.54-4.28-29.23,8.25-37.22,4.34-2.76,9.34-4.22,14.46-4.22v-.97M59.01,24.72c-5.13,0-10.33,1.41-14.98,4.38h0c-13.01,8.29-16.84,25.55-8.55,38.56l49.42,77.59c5.33,8.36,14.36,12.93,23.59,12.93,5.13,0,10.33-1.41,14.98-4.38h0c13.01-8.29,16.84-25.55,8.55-38.56l-49.42-77.59c-5.33-8.36-14.36-12.93-23.59-12.93h0Z"></path>
  </g>
  <line y2="75.8" x2="106.89" y1="106.4" x1="61.26" class="cls-2"></line>
  <line y2="71.15" x2="6.01" y1="76.31" x1="41.04" class="cls-2"></line>
</svg>