<svg viewBox="0 0 535.52 94.38" xmlns="http://www.w3.org/2000/svg" data-name="Layer 1" id="Layer_1">
  <defs>
    <style>
      .cls-1 {
        fill: #fff;
      }
    </style>
  </defs>
  <g>
    <path d="M151.44,2.7c-3.66-1.8-8.1-2.7-13.3-2.7h-31.66v10.98h6.9v56.29h13.49v-25.83h11.28c5.53,0,10.1-.96,13.73-2.89,3.63-1.93,6.3-4.46,8-7.61,1.7-3.15,2.55-6.52,2.55-10.12,0-3.98-.92-7.55-2.75-10.7-1.83-3.15-4.58-5.62-8.24-7.42h0ZM145.85,28c-1.8,1.7-4.56,2.55-8.29,2.55h-10.7V10.99h10.7c7.32,0,10.99,3.28,10.99,9.83,0,3.08-.9,5.48-2.7,7.18h0Z" class="cls-1"></path>
    <path d="M210.18,21.49c-1.8-2.44-4.19-4.46-7.18-6.07-2.99-1.61-6.47-2.41-10.46-2.41-4.56,0-8.69,1.12-12.38,3.37-3.7,2.25-6.62,5.46-8.77,9.64-2.15,4.18-3.23,8.96-3.23,14.36s1.08,10.3,3.23,14.51,5.07,7.47,8.77,9.78c3.69,2.31,7.79,3.47,12.29,3.47,3.98,0,7.5-.82,10.55-2.46s5.44-3.71,7.18-6.22v7.81h13.59V13.88h-13.59v7.61h0ZM208.25,49.01c-1.29,2.35-3.02,4.14-5.2,5.4-2.19,1.25-4.53,1.88-7.04,1.88s-4.74-.64-6.89-1.93c-2.15-1.28-3.89-3.13-5.2-5.54-1.32-2.41-1.98-5.22-1.98-8.43s.66-5.99,1.98-8.34c1.32-2.34,3.04-4.13,5.16-5.35,2.12-1.22,4.43-1.83,6.94-1.83s4.85.63,7.04,1.88c2.18,1.25,3.92,3.05,5.2,5.4,1.28,2.35,1.93,5.16,1.93,8.43s-.64,6.09-1.93,8.43h-.01Z" class="cls-1"></path>
    <path d="M259.81,24.48c2.7,0,4.96.66,6.8,1.98,1.83,1.32,3.13,3.13,3.9,5.44h14.55c-1.48-5.98-4.38-10.62-8.72-13.93s-9.82-4.96-16.43-4.96c-5.14,0-9.7,1.14-13.69,3.42-3.98,2.28-7.1,5.49-9.35,9.64-2.25,4.14-3.37,8.98-3.37,14.5s1.12,10.36,3.37,14.5,5.36,7.36,9.35,9.64c3.98,2.28,8.54,3.42,13.69,3.42,6.55,0,12.01-1.7,16.38-5.11,4.37-3.4,7.29-8,8.77-13.78h-14.55c-1.67,4.88-5.24,7.33-10.7,7.33-3.86,0-6.91-1.4-9.16-4.19-2.25-2.79-3.37-6.73-3.37-11.81s1.12-9.11,3.37-11.9c2.25-2.8,5.3-4.19,9.16-4.19h0Z" class="cls-1"></path>
    <path d="M334.4,21.49c-1.8-2.44-4.19-4.46-7.18-6.07-2.99-1.61-6.47-2.41-10.46-2.41-4.56,0-8.69,1.12-12.38,3.37-3.7,2.25-6.62,5.46-8.77,9.64s-3.23,8.96-3.23,14.36,1.08,10.3,3.23,14.51c2.15,4.21,5.07,7.47,8.77,9.78,3.69,2.31,7.79,3.47,12.29,3.47,3.98,0,7.5-.82,10.55-2.46s5.44-3.71,7.18-6.22v7.81h13.59V13.88h-13.59v7.61ZM332.47,49.01c-1.29,2.35-3.02,4.14-5.2,5.4-2.19,1.25-4.53,1.88-7.04,1.88s-4.74-.64-6.89-1.93c-2.15-1.28-3.89-3.13-5.2-5.54-1.32-2.41-1.98-5.22-1.98-8.43s.66-5.99,1.98-8.34c1.32-2.34,3.04-4.13,5.16-5.35s4.43-1.83,6.94-1.83,4.85.63,7.04,1.88c2.18,1.25,3.92,3.05,5.2,5.4,1.28,2.35,1.93,5.16,1.93,8.43s-.64,6.09-1.93,8.43h0Z" class="cls-1"></path>
    <path d="M462.13,16.29c-4.02-2.18-8.56-3.28-13.64-3.28s-9.93,1.12-13.97,3.37c-4.05,2.25-7.2,5.46-9.44,9.64-2.25,4.18-3.37,9.03-3.37,14.55s1.14,10.28,3.42,14.46,5.46,7.41,9.54,9.69c4.08,2.28,8.69,3.42,13.83,3.42,6.36,0,11.73-1.65,16.1-4.96,4.37-3.31,7.33-7.53,8.87-12.67h-14.55c-2.12,4.31-5.69,6.46-10.7,6.46-3.47,0-6.39-1.09-8.77-3.28-2.38-2.18-3.73-5.2-4.05-9.06h39.03c.26-1.54.39-3.28.39-5.2,0-5.2-1.11-9.81-3.33-13.83-2.22-4.02-5.33-7.12-9.35-9.3h-.01ZM435.48,35.56c.51-3.6,1.91-6.41,4.19-8.43s5.09-3.04,8.43-3.04c3.53,0,6.52,1.04,8.96,3.13s3.69,4.87,3.76,8.34h-25.35.01Z" class="cls-1"></path>
    <path d="M529.64,19.13c-3.92-4.01-9.06-6.02-15.42-6.02-3.34,0-6.41.66-9.2,1.98s-5.09,3.13-6.89,5.45v-6.65h-13.49v53.39h13.49v-29.49c0-4.24,1.07-7.5,3.23-9.78,2.15-2.28,5.09-3.42,8.82-3.42s6.55,1.14,8.67,3.42,3.18,5.54,3.18,9.78v29.49h13.49v-31.32c0-7.2-1.96-12.8-5.88-16.82h0Z" class="cls-1"></path>
    <g>
      <circle r="7.51" cy="9.21" cx="409.58" class="cls-1"></circle>
      <path d="M414.34,75.55c.14-.42.24-.81.32-1.16.04-.17-6.85-7.18-11.34-11.73,2.26-1.88,4.17-4.15,5.73-6.79,2.48-4.19,3.72-9.02,3.72-14.49s-1.21-10.31-3.62-14.49c-2.42-4.19-5.72-7.42-9.9-9.71-4.19-2.29-8.86-3.43-14.01-3.43s-9.83,1.14-14.01,3.43c-4.19,2.29-7.49,5.52-9.9,9.71-2.42,4.19-3.62,9.02-3.62,14.49s1.17,10.31,3.53,14.49c2.35,4.19,5.59,7.43,9.71,9.71,4.12,2.29,8.76,3.43,13.91,3.43,2.26,0,4.42-.23,6.5-.66l6.77,6.77c-3.03,3.79-7.54,6.37-12.89,6.4-7.36-.04-13.13-4.9-15.65-11.09-.81.3-12.57,4.79-13.45,5.11,2.51,7.04,11.85,18.84,29.1,18.84,10.85,0,18.64-4.73,23.51-9.95.71-.73,1.9-2.07,3.2-4.03,1.14-1.72,1.88-3.35,2.33-4.67.02-.06.05-.13.07-.19h-.01ZM375.24,53.12c-2.54-2.74-3.82-6.65-3.82-11.74s1.3-9,3.91-11.74c2.61-2.74,5.85-4.11,9.71-4.11s7.13,1.37,9.81,4.11c2.67,2.74,4.01,6.65,4.01,11.74,0,3.42-.64,6.31-1.93,8.7-1.29,2.38-3.01,4.17-5.17,5.36s-4.46,1.79-6.91,1.79c-3.87,0-7.07-1.37-9.61-4.11Z" class="cls-1"></path>
    </g>
  </g>
  <g>
    <path d="M32.75,33.65c0,4.6-1.59,8.44-4.78,11.51-3.19,3.07-7.02,4.6-11.51,4.6-4.72,0-8.64-1.53-11.77-4.6S0,38.26,0,33.65s1.57-8.59,4.69-11.59c3.13-3.01,7.05-4.51,11.77-4.51s8.32,1.51,11.51,4.51c3.19,3.01,4.78,6.88,4.78,11.59Z" class="cls-1"></path>
    <path d="M61.61,16.39c-2.95-5.02-6.93-9-11.95-11.95C44.64,1.49,39.01,0,32.75,0v15.96h.1c4.93,0,9.13,1.65,12.63,4.96,3.5,3.3,5.25,7.55,5.25,12.73s-1.75,9.26-5.25,12.63c-3.5,3.37-7.71,5.05-12.63,5.05h-.1v15.96c6.26,0,11.89-1.51,16.91-4.51,5.02-3.01,9-7.05,11.95-12.13,2.95-5.07,4.43-10.8,4.43-17.17s-1.47-12.07-4.43-17.08v-.02Z" class="cls-1"></path>
  </g>
</svg>